<svg width="17" height="17" viewBox="0 0 17 17" fill="none" xmlns="http://www.w3.org/2000/svg">
<path d="M8.2915 10.4755L2.83025 15.9368C2.52078 16.2462 2.1567 16.401 1.738 16.401C1.31931 16.401 0.955222 16.2462 0.645752 15.9368C0.336281 15.6273 0.181545 15.2632 0.181545 14.8445C0.181545 14.4258 0.33628 14.0617 0.645751 13.7523L6.107 8.29102L0.645751 2.82976C0.33628 2.52029 0.181545 2.15621 0.181545 1.73751C0.181545 1.31882 0.336281 0.954735 0.645752 0.645264C0.955222 0.335793 1.31931 0.181058 1.738 0.181058C2.1567 0.181058 2.52078 0.335793 2.83025 0.645264L8.2915 6.10651L13.7528 0.645264C14.0622 0.335793 14.4263 0.181058 14.845 0.181058C15.2637 0.181058 15.6278 0.335793 15.9373 0.645264C16.2467 0.954734 16.4015 1.31882 16.4015 1.73751C16.4015 2.15621 16.2467 2.52029 15.9373 2.82976L10.476 8.29102L15.9373 13.7523C16.2467 14.0617 16.4015 14.4258 16.4015 14.8445C16.4015 15.2632 16.2467 15.6273 15.9373 15.9368C15.6278 16.2462 15.2637 16.401 14.845 16.401C14.4263 16.401 14.0622 16.2462 13.7528 15.9368L8.2915 10.4755Z" fill="#D8D8D8"/>
</svg>
