<svg width="27" height="19" viewBox="0 0 27 19" fill="none" xmlns="http://www.w3.org/2000/svg">
<path d="M9.21849 14.853L23.9928 0.507795C24.3415 0.169265 24.7555 0 25.2349 0C25.7143 0 26.1284 0.169265 26.477 0.507795C26.8257 0.846325 27 1.24833 27 1.71381C27 2.17929 26.8257 2.58129 26.477 2.91982L10.4388 18.4922C10.0901 18.8307 9.68337 19 9.21849 19C8.75362 19 8.34685 18.8307 7.99819 18.4922L0.502066 11.2138C0.153409 10.8753 -0.0136557 10.4733 0.000871643 10.0078C0.015399 9.54232 0.196991 9.14031 0.545648 8.80178C0.894305 8.46325 1.30834 8.29399 1.78774 8.29399C2.26714 8.29399 2.68117 8.46325 3.02983 8.80178L9.21849 14.853Z" fill="#D8D8D8"/>
</svg>
