<svg width="35" height="34" viewBox="0 0 35 34" fill="none" xmlns="http://www.w3.org/2000/svg">
<path d="M10.022 29.75C9.24281 29.75 8.57579 29.4726 8.02093 28.9177C7.46607 28.3628 7.18864 27.6958 7.18864 26.9167V8.5C6.78725 8.5 6.45079 8.36424 6.17926 8.09271C5.90774 7.82118 5.77197 7.48472 5.77197 7.08333C5.77197 6.68194 5.90774 6.34549 6.17926 6.07396C6.45079 5.80243 6.78725 5.66667 7.18864 5.66667H12.8553C12.8553 5.26528 12.9911 4.92882 13.2626 4.65729C13.5341 4.38576 13.8706 4.25 14.272 4.25H19.9386C20.34 4.25 20.6765 4.38576 20.948 4.65729C21.2195 4.92882 21.3553 5.26528 21.3553 5.66667H27.022C27.4234 5.66667 27.7598 5.80243 28.0313 6.07396C28.3029 6.34549 28.4386 6.68194 28.4386 7.08333C28.4386 7.48472 28.3029 7.82118 28.0313 8.09271C27.7598 8.36424 27.4234 8.5 27.022 8.5V26.9167C27.022 27.6958 26.7445 28.3628 26.1897 28.9177C25.6348 29.4726 24.9678 29.75 24.1886 29.75H10.022ZM24.1886 8.5H10.022V26.9167H24.1886V8.5ZM14.272 24.0833C14.6734 24.0833 15.0098 23.9476 15.2813 23.676C15.5529 23.4045 15.6886 23.0681 15.6886 22.6667V12.75C15.6886 12.3486 15.5529 12.0122 15.2813 11.7406C15.0098 11.4691 14.6734 11.3333 14.272 11.3333C13.8706 11.3333 13.5341 11.4691 13.2626 11.7406C12.9911 12.0122 12.8553 12.3486 12.8553 12.75V22.6667C12.8553 23.0681 12.9911 23.4045 13.2626 23.676C13.5341 23.9476 13.8706 24.0833 14.272 24.0833ZM19.9386 24.0833C20.34 24.0833 20.6765 23.9476 20.948 23.676C21.2195 23.4045 21.3553 23.0681 21.3553 22.6667V12.75C21.3553 12.3486 21.2195 12.0122 20.948 11.7406C20.6765 11.4691 20.34 11.3333 19.9386 11.3333C19.5373 11.3333 19.2008 11.4691 18.9293 11.7406C18.6577 12.0122 18.522 12.3486 18.522 12.75V22.6667C18.522 23.0681 18.6577 23.4045 18.9293 23.676C19.2008 23.9476 19.5373 24.0833 19.9386 24.0833Z" fill="#B3B3B3"/>
</svg>
