<svg width="22" height="22" viewBox="0 0 22 22" fill="none" xmlns="http://www.w3.org/2000/svg">
<path d="M2.83333 19.1667H4.49583L15.9 7.7625L14.2375 6.1L2.83333 17.5042V19.1667ZM1.66667 21.5C1.33611 21.5 1.05903 21.3882 0.835417 21.1646C0.611806 20.941 0.5 20.6639 0.5 20.3333V17.5042C0.5 17.1931 0.558333 16.8965 0.675 16.6146C0.791667 16.3326 0.956944 16.0847 1.17083 15.8708L15.9 1.17083C16.1333 0.956944 16.391 0.791667 16.6729 0.675C16.9549 0.558333 17.2514 0.5 17.5625 0.5C17.8736 0.5 18.175 0.558333 18.4667 0.675C18.7583 0.791667 19.0111 0.966667 19.225 1.2L20.8292 2.83333C21.0625 3.04722 21.2326 3.3 21.3396 3.59167C21.4465 3.88333 21.5 4.175 21.5 4.46667C21.5 4.77778 21.4465 5.07431 21.3396 5.35625C21.2326 5.63819 21.0625 5.89583 20.8292 6.12917L6.12917 20.8292C5.91528 21.0431 5.66736 21.2083 5.38542 21.325C5.10347 21.4417 4.80694 21.5 4.49583 21.5H1.66667ZM15.0542 6.94583L14.2375 6.1L15.9 7.7625L15.0542 6.94583Z" fill="#D8D8D8"/>
</svg>
