<svg width="29" height="21" viewBox="0 0 29 21" fill="none" xmlns="http://www.w3.org/2000/svg">
<path d="M17.7932 10.5C17.7932 11.4282 17.4465 12.3186 16.8283 12.975C16.2107 13.6314 15.3734 14.0004 14.4994 14.0004C13.6255 14.0004 12.7882 13.632 12.1706 12.975C11.5529 12.3186 11.2057 11.4282 11.2057 10.5C11.2057 9.5718 11.5524 8.6814 12.1706 8.025C12.7882 7.3686 13.6255 6.9996 14.4994 6.9996C15.3723 7.0008 16.2101 7.3692 16.8272 8.0256C17.4448 8.682 17.792 9.5718 17.7926 10.4994L17.7932 10.5ZM27.9617 13.3176C25.4889 16.1856 20.4529 21 14.5 21C8.54711 21 3.5111 16.1862 1.03825 13.3182C0.370926 12.5508 0 11.5446 0 10.5C0 9.4554 0.370926 8.4492 1.03825 7.6824C3.5111 4.8144 8.54711 0 14.5 0C20.4529 0 25.4889 4.8138 27.9617 7.6824C28.6291 8.4492 29 9.4554 29 10.5C29 11.5446 28.6291 12.5508 27.9617 13.3176V13.3176ZM20.428 10.5C20.428 8.829 19.8036 7.227 18.692 6.045C17.5803 4.863 16.0723 4.2 14.5 4.2C12.9277 4.2 11.4202 4.8636 10.308 6.045C9.19581 7.2264 8.57195 8.829 8.57195 10.5C8.57195 12.171 9.19638 13.773 10.308 14.955C11.4197 16.1364 12.9277 16.8 14.5 16.8C16.0718 16.7982 17.5786 16.1334 18.6897 14.9526C19.8014 13.7718 20.4264 12.1698 20.428 10.5Z" fill="#9D9D9D"/>
</svg>
