<svg width="38" height="37" viewBox="0 0 38 37" fill="none" xmlns="http://www.w3.org/2000/svg">
<path d="M17.064 20.0413H9.35563C8.91883 20.0413 8.55268 19.8936 8.25719 19.5981C7.96171 19.3026 7.81396 18.9365 7.81396 18.4997C7.81396 18.0629 7.96171 17.6967 8.25719 17.4012C8.55268 17.1058 8.91883 16.958 9.35563 16.958H17.064V9.24967C17.064 8.81287 17.2117 8.44672 17.5072 8.15124C17.8027 7.85575 18.1688 7.70801 18.6056 7.70801C19.0424 7.70801 19.4086 7.85575 19.7041 8.15124C19.9996 8.44672 20.1473 8.81287 20.1473 9.24967V16.958H27.8556C28.2924 16.958 28.6586 17.1058 28.9541 17.4012C29.2496 17.6967 29.3973 18.0629 29.3973 18.4997C29.3973 18.9365 29.2496 19.3026 28.9541 19.5981C28.6586 19.8936 28.2924 20.0413 27.8556 20.0413H20.1473V27.7497C20.1473 28.1865 19.9996 28.5526 19.7041 28.8481C19.4086 29.1436 19.0424 29.2913 18.6056 29.2913C18.1688 29.2913 17.8027 29.1436 17.5072 28.8481C17.2117 28.5526 17.064 28.1865 17.064 27.7497V20.0413Z" fill="#B3B3B3"/>
</svg>
