<svg width="55" height="55" viewBox="0 0 55 55" fill="none" xmlns="http://www.w3.org/2000/svg">
<path d="M49.4426 27.5002C49.4426 27.8057 49.3949 28.0922 49.2994 28.3595C49.2039 28.6269 49.0416 28.8752 48.8124 29.1043L35.9791 41.9377C35.559 42.3578 35.0242 42.5679 34.3749 42.5679C33.7256 42.5679 33.1909 42.3578 32.7708 41.9377C32.3124 41.4793 32.0928 40.9351 32.1119 40.3048C32.131 39.6746 32.3506 39.1495 32.7708 38.7293L41.651 29.7918L6.87492 29.7918C6.22561 29.7918 5.68134 29.5722 5.24211 29.133C4.80287 28.6937 4.58325 28.1495 4.58325 27.5002C4.58325 26.8509 4.80287 26.3066 5.24211 25.8674C5.68134 25.4281 6.22561 25.2085 6.87492 25.2085L41.651 25.2085L32.7708 16.3283C32.3124 15.87 32.0833 15.3257 32.0833 14.6955C32.0833 14.0653 32.3124 13.521 32.7708 13.0627C33.2291 12.6425 33.7734 12.4325 34.4036 12.4325C35.0338 12.4325 35.5589 12.6425 35.9791 13.0627L48.8124 25.896C49.0416 26.1252 49.2039 26.3734 49.2994 26.6408C49.3949 26.9081 49.4426 27.1946 49.4426 27.5002Z" fill="#9D9D9D"/>
</svg>
