<svg width="391" height="291" viewBox="0 0 391 291" fill="none" xmlns="http://www.w3.org/2000/svg">
<path d="M124.437 229.522L156.731 248.219V285.614L124.437 266.917V229.522Z" fill="#167FFC"/>
<path d="M27.5571 173.428L59.8499 192.125V229.522L27.5571 210.823V173.428Z" fill="#167FFC"/>
<path d="M318.2 229.522V192.125L350.493 173.428V210.823L318.2 229.522Z" fill="#1F1F41"/>
<path d="M253.613 117.335L221.327 134.436L221.319 173.428L253.613 154.73V117.335Z" fill="#1F1F41"/>
<path d="M285.906 173.428L285.914 136.033L318.2 117.335V154.73L285.906 173.428Z" fill="#167FFC"/>
<path d="M156.732 286.603L123.585 267.41V230.015L92.1444 211.811L59.8499 230.51L26.7031 211.318V172.935L59.8499 153.742L92.5706 172.686L91.7165 174.17L59.8499 155.719L28.4096 173.923V210.33L59.8499 228.532L92.1444 209.835L125.291 229.027V266.422L156.732 284.626L188.172 266.422V229.522H189.878V267.41L156.732 286.603Z" fill="#167FFC"/>
<path d="M182.608 229.522C182.608 225.967 185.482 223.085 189.026 223.085C192.57 223.085 195.444 225.967 195.444 229.522C195.444 233.076 192.57 235.958 189.026 235.958C185.482 235.958 182.608 233.076 182.608 229.522Z" fill="#167FFC"/>
<path d="M89.5772 177.888C92.0332 179.31 95.1732 178.466 96.5916 176.003C98.01 173.54 97.1677 170.391 94.7116 168.968C92.2556 167.546 89.1156 168.39 87.6972 170.853C86.2788 173.317 87.1211 176.465 89.5772 177.888Z" fill="#167FFC"/>
<path d="M253.185 230.262L220.465 211.318V173.923L188.598 155.472L189.452 153.989L222.173 172.935V210.329L254.039 228.78L253.185 230.262Z" fill="#167FFC"/>
<path d="M256.822 223.947C259.891 225.724 260.942 229.66 259.172 232.738C257.4 235.816 253.475 236.87 250.406 235.093C247.336 233.316 246.285 229.38 248.057 226.302C249.829 223.224 253.754 222.17 256.824 223.945L256.822 223.947Z" fill="#167FFC"/>
<path d="M191.592 150.27C189.135 148.848 185.995 149.693 184.577 152.156C183.159 154.619 184.001 157.768 186.457 159.19C188.913 160.612 192.053 159.768 193.47 157.305C194.888 154.842 194.046 151.693 191.59 150.27H191.592Z" fill="#167FFC"/>
<path d="M318.2 230.51L285.48 211.565L286.334 210.083L318.2 228.532L349.641 210.33V173.923L318.2 155.719L285.906 174.416L252.759 155.224V117.829L221.319 99.6264L189.026 118.324L156.305 99.3781L157.158 97.8965L189.026 116.347L221.319 97.6499L254.465 116.841V154.237L285.906 172.44L318.2 153.742L351.347 172.935V211.318L318.2 230.51Z" fill="#167FFC"/>
<path d="M282.697 216.397C279.627 214.62 278.576 210.684 280.347 207.606C282.119 204.528 286.044 203.474 289.113 205.251C292.182 207.028 293.233 210.964 291.461 214.042C289.689 217.12 285.764 218.174 282.695 216.399L282.697 216.397Z" fill="#167FFC"/>
<path d="M159.299 94.1782C156.842 92.7557 153.702 93.6004 152.284 96.0634C150.866 98.5265 151.708 101.675 154.164 103.098C156.62 104.52 159.76 103.676 161.179 101.213C162.597 98.7495 161.755 95.6006 159.299 94.1782Z" fill="#167FFC"/>
<path d="M319.052 154.73H317.346V117.829L285.053 99.1311V61.2412H286.76V98.1428L319.052 116.84V154.73Z" fill="#167FFC"/>
<path d="M324.618 154.73C324.618 158.285 321.744 161.167 318.2 161.167C314.656 161.167 311.782 158.285 311.782 154.73C311.782 151.176 314.656 148.294 318.2 148.294C321.744 148.294 324.618 151.176 324.618 154.73Z" fill="#167FFC"/>
<path d="M382.359 41.8035L350.065 60.501L350.919 61.983L383.212 43.2856L382.359 41.8035Z" fill="#167FFC"/>
<path d="M353.702 66.816C350.633 68.5932 346.706 67.5374 344.936 64.4594C343.164 61.3815 344.216 57.4453 347.286 55.6682C350.355 53.891 354.28 54.9468 356.052 58.0248C357.824 61.1027 356.771 65.0389 353.704 66.816H353.702Z" fill="#167FFC"/>
<path d="M386.904 45.6905C388.621 43.4277 388.185 40.1971 385.928 38.4746C383.672 36.7521 380.45 37.19 378.733 39.4528C377.015 41.7155 377.452 44.9462 379.708 46.6686C381.965 48.3911 385.186 47.9532 386.904 45.6905Z" fill="#167FFC"/>
<path d="M100.153 266.327L67.8599 285.024L68.7131 286.506L101.006 267.809L100.153 266.327Z" fill="#167FFC"/>
<path d="M97.3693 261.495C100.438 259.718 104.365 260.774 106.136 263.852C107.908 266.93 106.855 270.866 103.786 272.643C100.716 274.42 96.7915 273.365 95.0193 270.287C93.2472 267.209 94.3 263.273 97.3676 261.495H97.3693Z" fill="#167FFC"/>
<path d="M65.7185 281.308C63.2624 282.73 62.4218 285.879 63.8385 288.342C65.2569 290.805 68.3969 291.648 70.853 290.227C73.3091 288.805 74.1497 285.656 72.7329 283.193C71.3146 280.73 68.1746 279.887 65.7185 281.308Z" fill="#167FFC"/>
<path d="M92.9965 98.6379H91.29V60.748L124.437 41.5556L156.731 60.253L188.172 42.0506V5.14893H189.878V43.0388L156.731 62.2295L124.437 43.5321L92.9965 61.7363V98.6379Z" fill="#167FFC"/>
<path d="M98.5623 98.638C98.5623 102.192 95.6885 105.074 92.1442 105.074C88.5999 105.074 85.7261 102.192 85.7261 98.638C85.7261 95.0837 88.5999 92.2017 92.1442 92.2017C95.6885 92.2017 98.5623 95.0837 98.5623 98.638Z" fill="#167FFC"/>
<path d="M194.159 5.14906C194.159 2.30593 191.859 0 189.024 0C186.189 0 183.89 2.30593 183.89 5.14906C183.89 7.9922 186.189 10.2981 189.024 10.2981C191.859 10.2981 194.159 7.9922 194.159 5.14906Z" fill="#167FFC"/>
<path d="M5.56171 79.7367L4.7085 81.2188L133.883 156.009L134.736 154.527L5.56171 79.7367Z" fill="#167FFC"/>
<path d="M7.70335 76.018C5.24728 74.5956 2.10728 75.4403 0.688896 77.9033C-0.729492 80.3663 0.112782 83.5152 2.56885 84.9376C5.02492 86.3601 8.16492 85.5154 9.58162 83.0524C11 80.5893 10.1577 77.4404 7.70166 76.018H7.70335Z" fill="#167FFC"/>
<path d="M97.9925 104.503C101.223 101.264 101.223 96.0118 97.9925 92.7725C94.7624 89.5333 89.5254 89.5333 86.2953 92.7725C83.0653 96.0118 83.0653 101.264 86.2953 104.503C89.5254 107.742 94.7624 107.742 97.9925 104.503Z" fill="#1F1F41"/>
<path d="M194.874 160.595C198.104 157.355 198.104 152.104 194.874 148.864C191.644 145.625 186.407 145.625 183.177 148.864C179.947 152.104 179.947 157.355 183.177 160.595C186.407 163.834 191.644 163.834 194.874 160.595Z" fill="#1F1F41"/>
<path d="M221.327 65.0185C223.407 65.0185 225.094 63.3274 225.094 61.2412C225.094 59.155 223.407 57.4639 221.327 57.4639C219.247 57.4639 217.561 59.155 217.561 61.2412C217.561 63.3274 219.247 65.0185 221.327 65.0185Z" fill="#1F1F41"/>
<path d="M162.681 193.456C164.603 192.658 165.516 190.448 164.72 188.521C163.924 186.594 161.72 185.679 159.798 186.477C157.876 187.275 156.964 189.485 157.76 191.412C158.556 193.34 160.759 194.255 162.681 193.456Z" fill="#1F1F41"/>
<path d="M59.8497 237.817C64.4178 237.817 68.1209 234.103 68.1209 229.522C68.1209 224.941 64.4178 221.228 59.8497 221.228C55.2817 221.228 51.5786 224.941 51.5786 229.522C51.5786 234.103 55.2817 237.817 59.8497 237.817Z" fill="#1F1F41"/>
<path d="M140.196 151.467C136.82 149.38 132.392 150.425 130.306 153.801C128.22 157.176 129.265 161.605 132.641 163.692C136.017 165.778 140.445 164.734 142.532 161.358C144.618 157.982 143.572 153.554 140.196 151.467Z" fill="#1F1F41"/>
<path d="M147.27 146.715C153.258 152.703 153.259 162.445 147.272 168.433C141.284 174.42 131.542 174.419 125.554 168.431C121.941 164.818 120.363 159.661 121.335 154.64C121.428 154.161 121.89 153.851 122.368 153.942C122.847 154.035 123.157 154.497 123.066 154.975C122.205 159.42 123.601 163.983 126.799 167.181C132.1 172.482 140.722 172.483 146.022 167.183C151.322 161.883 151.321 153.261 146.02 147.96C142.583 144.523 137.535 143.18 132.837 144.453C132.367 144.581 131.883 144.301 131.755 143.83C131.627 143.359 131.907 142.876 132.377 142.748C137.682 141.31 143.388 142.829 147.27 146.71V146.715Z" fill="#167FFC"/>
<path d="M276.888 56.5691C277.968 61.1475 282.555 63.983 287.132 62.9024C291.71 61.8218 294.545 57.2343 293.465 52.656C292.384 48.0777 287.797 45.2422 283.22 46.3228C278.642 47.4034 275.807 51.9908 276.888 56.5691Z" fill="#1F1F41"/>
<path d="M267.088 54.6189C267.088 44.6289 275.274 36.5029 285.338 36.5029C295.402 36.5029 303.587 44.6289 303.587 54.6189C303.587 60.6455 300.579 66.2631 295.544 69.6402C295.062 69.9623 294.413 69.8356 294.089 69.3615C293.764 68.8837 293.892 68.2394 294.37 67.9173C298.829 64.9275 301.491 59.9578 301.491 54.6225C301.491 45.7799 294.246 38.5878 285.338 38.5878C276.43 38.5878 269.185 45.7799 269.185 54.6225C269.185 60.356 272.299 65.6876 277.316 68.5434C277.819 68.8294 277.991 69.4664 277.703 69.9659C277.415 70.4654 276.773 70.6356 276.27 70.3496C270.603 67.1246 267.085 61.098 267.085 54.6225L267.088 54.6189Z" fill="#167FFC"/>
</svg>
